<?xml version="1.0" standalone="no"?>
<!DOCTYPE svg PUBLIC "-//W3C//DTD SVG 20010904//EN"
 "http://www.w3.org/TR/2001/REC-SVG-20010904/DTD/svg10.dtd">
<svg version="1.0" xmlns="http://www.w3.org/2000/svg"
 width="5653.000000pt" height="5000.000000pt" viewBox="0 0 5653.000000 5000.000000"
 preserveAspectRatio="xMidYMid meet">

<g transform="translate(0.000000,5000.000000) scale(0.100000,-0.100000)"
fill="#000000" stroke="none">
<path d="M19391 39362 c-55 -103 -97 -190 -93 -193 4 -4 930 -501 2057 -1105
1128 -603 2072 -1113 2099 -1132 65 -47 129 -137 157 -219 32 -93 32 -223 0
-305 -89 -230 -226 -358 -417 -390 -60 -10 -85 -9 -154 5 -78 15 -178 67
-2157 1127 -1141 612 -2078 1108 -2083 1104 -9 -10 -2266 -4221 -2275 -4246
-5 -12 417 -241 1802 -983 994 -533 1837 -984 1873 -1004 l65 -35 -32 37 c-54
62 -53 107 2 143 72 47 222 -73 350 -281 35 -57 73 -106 90 -117 97 -59 409
-172 596 -214 225 -51 308 -59 589 -59 296 0 379 10 630 71 369 91 737 271
1024 501 110 89 310 288 399 398 151 187 202 271 515 855 347 646 398 760 472
1055 63 248 75 354 75 645 0 258 -6 332 -46 530 -148 737 -617 1388 -1274
1767 -50 29 -3951 2121 -4142 2221 -21 11 -26 3 -122 -176z"/>
<path d="M15985 34033 c-296 -27 -583 -161 -875 -409 -352 -299 -559 -580
-790 -1074 -91 -196 -113 -287 -114 -485 0 -141 3 -172 26 -266 72 -285 224
-549 458 -793 120 -125 232 -217 419 -341 176 -116 315 -239 400 -354 54 -73
127 -215 137 -268 3 -18 9 -33 13 -33 7 0 42 284 41 340 0 19 -9 62 -19 95
-17 54 -181 443 -226 537 l-18 37 -30 -16 c-55 -28 -144 -5 -219 57 -51 42
-131 165 -158 241 -27 79 -37 225 -20 289 7 27 26 59 50 82 34 34 43 38 89 38
35 0 67 -8 100 -25 l49 -24 6 22 c3 12 11 99 16 192 23 388 46 558 80 576 8 4
177 38 375 74 270 50 393 78 492 111 208 68 365 152 480 258 l56 50 66 -69
c172 -180 335 -505 436 -870 l34 -120 0 107 c2 271 -103 631 -301 1037 l-81
165 12 49 c18 77 14 206 -9 278 -53 172 -184 312 -384 409 -178 87 -381 122
-591 103z"/>
<path d="M45820 33784 c-530 -49 -851 -104 -947 -163 -19 -12 -33 -31 -37 -48
-26 -123 -194 -1249 -482 -3233 l-25 -175 -108 -110 c-60 -60 -830 -846 -1713
-1746 l-1605 -1635 -41 -150 c-180 -651 -395 -1594 -547 -2399 -204 -1085
-320 -1978 -385 -2970 -18 -267 -24 -1013 -11 -1275 33 -637 104 -1107 238
-1555 48 -160 134 -388 189 -496 l33 -67 -47 -6 c-104 -14 -719 -19 -892 -7
-253 17 -535 58 -812 117 l-28 6 16 -43 c8 -24 436 -1298 949 -2830 l933
-2786 1987 -2889 c1093 -1589 1991 -2893 1995 -2898 11 -12 109 19 177 55 193
104 385 311 560 604 91 152 137 249 131 278 -3 12 -566 1287 -1253 2832
l-1247 2810 -254 2229 c-140 1226 -254 2239 -254 2252 0 20 8 23 83 33 366 52
634 118 805 198 53 25 76 42 83 61 25 63 -19 456 -186 1672 -226 1645 -327
2460 -401 3235 -69 713 -10 1483 187 2468 41 203 135 614 149 652 5 12 100
136 212 276 259 323 631 795 869 1104 1067 1384 1628 2219 1709 2540 89 350
195 1685 240 3015 18 537 10 1037 -17 1060 -4 3 -118 -4 -253 -16z"/>
<path d="M35851 32799 c-263 -23 -475 -88 -519 -159 -29 -46 -47 -2637 -22
-3220 12 -310 32 -527 53 -588 55 -160 768 -1125 2079 -2814 l308 -397 -79
-328 c-609 -2524 -1053 -4286 -1342 -5328 -100 -360 -162 -642 -259 -1178 -47
-260 -49 -290 -15 -339 25 -37 122 -106 211 -151 141 -71 425 -174 594 -216
156 -39 195 -44 209 -27 46 55 182 644 590 2541 417 1940 584 2690 766 3433
151 616 276 967 506 1422 159 316 284 515 625 999 l165 235 -653 655 c-359
361 -978 982 -1375 1381 l-721 725 -57 525 c-184 1708 -275 2613 -275 2735 0
50 -2 56 -25 65 -91 34 -520 51 -764 29z"/>
<path d="M39997 31156 c-79 -29 -157 -73 -228 -132 l-50 -41 -112 -6 c-120 -6
-268 -38 -377 -82 -36 -14 -103 -34 -150 -46 -212 -50 -385 -146 -551 -306
-101 -97 -174 -198 -230 -317 -50 -108 -69 -189 -69 -308 0 -116 20 -190 75
-273 34 -51 129 -135 167 -147 9 -3 3 -25 -19 -74 -40 -87 -52 -140 -53 -229
0 -126 52 -265 143 -376 l44 -54 -19 -90 c-23 -108 -20 -304 6 -400 39 -142
127 -288 246 -405 71 -71 226 -187 236 -178 2 3 -7 38 -21 79 -98 286 -128
586 -105 1039 14 285 14 284 58 303 57 25 105 70 137 128 26 48 30 64 30 139
0 47 -4 99 -8 115 -8 29 -6 31 40 54 143 69 313 210 414 344 58 77 149 244
149 274 0 16 4 16 64 -2 104 -32 281 -14 363 37 38 23 47 21 158 -34 236 -118
452 -346 581 -615 79 -164 142 -384 162 -563 l7 -65 36 -6 c147 -23 251 -204
219 -380 -27 -150 -123 -248 -247 -254 l-57 -2 -38 -109 c-20 -60 -64 -163
-97 -229 l-60 -120 9 -150 c5 -82 10 -156 10 -164 0 -11 10 -12 45 -8 92 13
173 76 220 170 l25 51 128 -3 c143 -3 196 7 290 52 73 35 133 97 180 184 40
76 96 243 117 354 l17 86 57 23 c72 30 163 119 197 194 62 136 71 329 19 443
-15 34 -36 70 -46 79 -11 9 -19 21 -19 26 0 5 20 44 45 86 58 98 84 184 92
297 12 195 -30 362 -110 430 -46 40 -153 85 -200 85 -33 0 -33 0 -47 68 -34
173 -112 341 -203 438 -112 121 -216 166 -382 166 l-100 1 -60 55 c-115 107
-255 145 -390 107 -33 -9 -69 -19 -80 -22 -16 -3 -29 8 -59 51 -58 84 -164
179 -243 217 -62 30 -77 34 -178 36 -97 3 -118 1 -178 -21z"/>
<path d="M17060 29239 c0 -6 9 -45 20 -87 61 -241 100 -548 100 -789 0 -257
-32 -388 -116 -482 -110 -122 -268 -107 -474 45 -232 171 -599 645 -893 1154
-61 106 -72 120 -75 97 -4 -30 16 -323 48 -712 195 -2359 572 -5131 1064
-7832 85 -464 202 -1081 216 -1133 5 -19 36 -172 69 -339 69 -347 70 -331 -22
-351 -90 -19 -295 -23 -516 -11 -118 7 -221 14 -230 16 -9 1 -61 6 -116 10
-55 4 -107 8 -115 10 -8 1 -46 6 -85 9 -206 20 -677 86 -980 137 -159 27 -429
81 -590 118 -71 17 -131 28 -134 25 -8 -7 26 -546 64 -1044 39 -493 68 -830
185 -2125 168 -1855 246 -2842 257 -3235 3 -124 0 -490 -6 -815 -9 -449 -9
-646 -1 -825 7 -129 69 -1288 139 -2575 l126 -2340 733 -9 c403 -4 736 -5 740
-2 13 14 261 3257 377 4936 92 1336 130 2005 145 2525 21 728 48 1203 136
2335 67 877 291 3539 299 3547 1 2 60 8 131 13 712 57 1352 267 1865 612 64
43 123 86 132 96 15 17 10 52 -84 508 -146 716 -226 1107 -264 1299 -18 94
-74 368 -124 610 -49 242 -178 870 -285 1395 -216 1059 -233 1140 -312 1454
-84 333 -161 615 -309 1121 -139 475 -367 1172 -462 1410 -120 301 -328 728
-468 960 -58 97 -176 275 -181 275 -2 0 -4 -5 -4 -11z"/>
<path d="M45441 7192 c-5 -15 -53 -144 -106 -287 -363 -976 -702 -1704 -872
-1868 -35 -33 -57 -43 -179 -78 -186 -53 -307 -112 -368 -180 l-46 -51 0 -109
0 -109 793 0 794 0 22 113 c25 126 27 137 156 772 l94 461 72 179 c222 557
322 873 293 923 -25 43 -268 142 -631 257 -6 2 -16 -8 -22 -23z"/>
<path d="M19575 5633 c-10 -3 -29 -12 -42 -20 -89 -59 -143 -321 -159 -784
l-7 -197 94 -6 c638 -43 1934 -57 2424 -26 442 28 810 86 860 136 42 43 -3
105 -149 203 -237 158 -819 419 -1351 605 -88 31 -169 60 -181 65 -15 6 -61
-2 -160 -30 -196 -55 -443 -115 -553 -134 -87 -15 -100 -15 -174 0 -44 9 -136
41 -206 71 -235 104 -337 134 -396 117z"/>
<path d="M14963 5509 c-66 -42 -127 -220 -157 -459 -19 -154 -42 -438 -35
-444 6 -6 572 -42 964 -61 960 -46 1795 -48 2195 -5 133 15 292 49 313 67 40
37 13 85 -86 156 -269 191 -856 455 -1595 717 l-93 33 -147 -41 c-193 -55
-405 -107 -517 -128 -154 -28 -234 -12 -474 96 -209 94 -302 112 -368 69z"/>
<path d="M38550 5191 c-168 -53 -339 -106 -380 -119 -151 -46 -418 -135 -510
-169 -185 -69 -357 -168 -385 -223 -15 -30 -20 -86 -9 -114 6 -15 161 -16
1655 -16 1251 0 1649 3 1649 12 0 6 -34 113 -75 237 -41 124 -93 286 -116 358
-36 117 -43 132 -58 123 -35 -18 -288 -101 -381 -125 -128 -32 -252 -48 -314
-40 -92 12 -367 74 -556 125 -102 27 -192 49 -200 49 -8 -1 -152 -44 -320 -98z"/>
</g>
</svg>
